<svg width="200.00000000000003" height="200.00000000000003" xmlns="http://www.w3.org/2000/svg">

 <g>
  <title>Layer 1</title>
  <g id="svg_50">
   <g id="svg_45">
    <rect stroke="#444444" id="svg_42" height="41.05333" width="20.00034" y="424.70779" x="189.99983" stroke-width="10" fill="none"/>
    <rect stroke="#444444" id="svg_43" height="41.05333" width="20.00034" y="341.54811" x="189.99983" stroke-width="10" fill="none"/>
    <rect stroke="#444444" id="svg_44" height="41.05333" width="3.68381" y="382.07714" x="198.15811" stroke-width="10" fill="none"/>
   </g>
   <rect stroke="#444444" id="svg_46" height="41.05333" width="20.00034" y="424.70779" x="189.99983" stroke-width="10" fill="none"/>
   <rect stroke="#444444" id="svg_47" height="41.05333" width="20.00034" y="341.54811" x="189.99983" stroke-width="10" fill="none"/>
   <rect stroke="#444444" id="svg_48" height="41.05333" width="3.68381" y="382.07714" x="198.15811" stroke-width="10" fill="none"/>
   <rect stroke="#444444" id="svg_49" height="41.05333" width="3.68381" y="466.28748" x="198.15809" stroke-width="10" fill="none"/>
  </g>
  <rect stroke="#444444" id="svg_25" height="41.05333" width="20.00034" y="-51.11111" x="89.99983" stroke-width="10" fill="none"/>
  <g id="svg_36">
   <rect stroke="#444444" id="svg_33" height="41.05333" width="20.00034" y="198.04112" x="89.99983" stroke-width="10" fill="none"/>
   <rect stroke="#444444" id="svg_34" height="41.05333" width="20.00034" y="114.88144" x="89.99983" stroke-width="10" fill="none"/>
   <rect stroke="#444444" id="svg_35" height="41.05333" width="3.68381" y="155.41047" x="98.15811" stroke-width="10" fill="none"/>
  </g>
  <rect stroke="#444444" id="svg_37" height="41.05333" width="20.00034" y="198.04112" x="89.99983" stroke-width="10" fill="none"/>
  <rect stroke="#444444" id="svg_38" height="41.05333" width="20.00034" y="114.88144" x="89.99983" stroke-width="10" fill="none"/>
  <rect stroke="#444444" id="svg_40" height="41.05333" width="3.68381" y="239.62081" x="98.15809" stroke-width="10" fill="none"/>
  <rect stroke="#666666" id="svg_31" height="37.16698" width="3.68381" y="75.32283" x="98.1581" stroke-width="10" fill="none"/>
  <rect stroke="#666666" id="svg_53" height="32.78342" width="3.68381" y="158.33652" x="98.15809" stroke-width="10" fill="none"/>
 </g>
</svg>